<svg width="1326" height="1326" viewBox="0 0 1326 1326" fill="none" xmlns="http://www.w3.org/2000/svg">
<g opacity="0.07">
<path fill-rule="evenodd" clip-rule="evenodd" d="M663 356C832.551 356 970 493.449 970 663C970 832.551 832.551 970 663 970C493.449 970 356 832.551 356 663C356 493.449 493.449 356 663 356ZM663 376C504.494 376 376 504.494 376 663C376 821.506 504.494 950 663 950C821.506 950 950 821.506 950 663C950 504.494 821.506 376 663 376Z" fill="#A3A3A3"/>
<path fill-rule="evenodd" clip-rule="evenodd" d="M663 198C919.812 198 1128 406.188 1128 663C1128 919.812 919.812 1128 663 1128C406.188 1128 198 919.812 198 663C198 406.188 406.188 198 663 198ZM663 218C417.233 218 218 417.233 218 663C218 908.767 417.233 1108 663 1108C908.767 1108 1108 908.767 1108 663C1108 417.233 908.767 218 663 218Z" fill="#A3A3A3"/>
<path fill-rule="evenodd" clip-rule="evenodd" d="M663 0C1029.16 0 1326 296.835 1326 663C1326 1029.16 1029.16 1326 663 1326C296.835 1326 0 1029.16 0 663C0 296.835 296.835 0 663 0ZM663 20C307.881 20 20 307.881 20 663C20 1018.12 307.881 1306 663 1306C1018.12 1306 1306 1018.12 1306 663C1306 307.881 1018.12 20 663 20Z" fill="#A3A3A3"/>
</g>
</svg>
